<?xml version="1.0" encoding="UTF-8"?>
<!DOCTYPE svg PUBLIC "-//W3C//DTD SVG 1.1//EN" "http://www.w3.org/Graphics/SVG/1.1/DTD/svg11.dtd">
<svg xmlns="http://www.w3.org/2000/svg" version="1.1" width="512px" height="512px" style="shape-rendering:geometricPrecision; text-rendering:geometricPrecision; image-rendering:optimizeQuality; fill-rule:evenodd; clip-rule:evenodd" xmlns:xlink="http://www.w3.org/1999/xlink">
<g><path style="opacity:1" fill="#d7e9a9" d="M 258.5,66.5 C 258.179,64.9519 257.179,64.2852 255.5,64.5C 255.5,66.5 255.5,68.5 255.5,70.5C 255.5,72.1667 255.5,73.8333 255.5,75.5C 254.371,77.6282 254.204,79.9615 255,82.5C 256.011,83.3366 257.178,83.67 258.5,83.5C 258.5,82.1667 258.5,80.8333 258.5,79.5C 256.007,79.8693 255.34,79.2027 256.5,77.5C 256.215,75.712 256.548,74.0453 257.5,72.5C 260.399,71.3584 263.399,70.6917 266.5,70.5C 266.5,77.5 266.5,84.5 266.5,91.5C 260.167,91.5 253.833,91.5 247.5,91.5C 247.333,80.8281 247.5,70.1615 248,59.5C 248.374,58.5838 248.874,57.7504 249.5,57C 254.554,56.219 259.554,56.3857 264.5,57.5C 266.466,60.549 266.966,63.8823 266,67.5C 264.769,68.1078 263.436,68.4411 262,68.5C 260.319,68.3917 259.152,67.7251 258.5,66.5 Z"/></g>
<g><path style="opacity:1" fill="#d0e2a3" d="M 225.5,58.5 C 228.85,58.335 232.183,58.5017 235.5,59C 236.308,59.3076 236.975,59.8076 237.5,60.5C 240.679,69.9193 241.846,79.5859 241,89.5C 240.535,90.9308 239.701,92.0975 238.5,93C 233.989,94.7361 229.323,95.9028 224.5,96.5C 223.006,96.2908 221.839,95.6241 221,94.5C 218.761,83.5907 217.761,72.5907 218,61.5C 220.567,60.4131 223.067,59.4131 225.5,58.5 Z M 229.5,68.5 C 230.537,69.9303 231.204,71.597 231.5,73.5C 230.07,75.4547 230.403,77.1214 232.5,78.5C 232.663,80.8568 232.497,83.1902 232,85.5C 231,86.8333 230,86.8333 229,85.5C 227.425,79.5284 227.258,73.5284 228.5,67.5C 229.107,67.6236 229.44,67.9569 229.5,68.5 Z"/></g>
<g><path style="opacity:1" fill="#cbde9f" d="M 275.5,57.5 C 281.52,57.5866 287.354,58.5866 293,60.5C 294.82,67.242 292.487,69.5754 286,67.5C 282.178,67.9695 281.678,69.4695 284.5,72C 285.448,72.4828 286.448,72.6495 287.5,72.5C 287.5,74.8333 287.5,77.1667 287.5,79.5C 284.175,79.494 281.841,80.994 280.5,84C 282.761,85.9632 285.428,87.1298 288.5,87.5C 289.833,90.5 289.833,93.5 288.5,96.5C 283.074,95.548 277.74,94.2146 272.5,92.5C 271.812,80.6899 272.812,69.0232 275.5,57.5 Z"/></g>
<g><path style="opacity:0.11" fill="#212a1d" d="M 258.5,66.5 C 257.883,66.3893 257.383,66.056 257,65.5C 256.802,67.3817 256.302,69.0484 255.5,70.5C 255.5,68.5 255.5,66.5 255.5,64.5C 257.179,64.2852 258.179,64.9519 258.5,66.5 Z"/></g>
<g><path style="opacity:1" fill="#ccde9f" d="M 301.5,63.5 C 308.843,64.8916 315.677,67.5583 322,71.5C 322.743,73.4406 322.576,75.2739 321.5,77C 319.141,77.2078 316.974,77.3744 315,77.5C 313.156,85.2097 311.156,92.8764 309,100.5C 306.697,102.835 304.197,102.835 301.5,100.5C 301.167,99.5 300.833,98.5 300.5,97.5C 301.931,90.6101 303.597,83.7768 305.5,77C 303.468,75.2524 301.468,73.419 299.5,71.5C 300.171,68.8151 300.838,66.1484 301.5,63.5 Z"/></g>
<g><path style="opacity:1" fill="#ccdea0" d="M 201.5,66.5 C 204.652,65.9586 207.152,66.9586 209,69.5C 213.025,79.081 215.191,88.9143 215.5,99C 209.621,102.106 203.621,104.94 197.5,107.5C 196.029,106.619 195.196,105.286 195,103.5C 192.499,94.1605 189.999,84.8272 187.5,75.5C 188.368,72.3435 190.535,70.6769 194,70.5C 194.772,70.6448 195.439,70.9781 196,71.5C 197.845,78.5448 199.845,85.5448 202,92.5C 204.027,95.0822 205.193,94.5822 205.5,91C 203.833,84 202.167,77 200.5,70C 200.648,68.7441 200.982,67.5774 201.5,66.5 Z"/></g>
<g><path style="opacity:0.006" fill="#1f2019" d="M 231.5,73.5 C 232.038,75.1172 232.371,76.7839 232.5,78.5C 230.403,77.1214 230.07,75.4547 231.5,73.5 Z"/></g>
<g><path style="opacity:1" fill="#7d8f61" d="M 255.5,75.5 C 255.328,76.4916 255.662,77.1583 256.5,77.5C 255.34,79.2027 256.007,79.8693 258.5,79.5C 258.5,80.8333 258.5,82.1667 258.5,83.5C 257.178,83.67 256.011,83.3366 255,82.5C 254.204,79.9615 254.371,77.6282 255.5,75.5 Z"/></g>
<g><path style="opacity:1" fill="#cadc9d" d="M 329.5,76.5 C 333.18,76.5084 335.847,78.1751 337.5,81.5C 334.003,91.1617 330.503,100.828 327,110.5C 323.176,112.694 320.342,111.527 318.5,107C 321.678,96.6302 325.345,86.4635 329.5,76.5 Z"/></g>
<g><path style="opacity:1" fill="#cddfa1" d="M 173.5,81.5 C 176.97,80.8748 179.804,81.8748 182,84.5C 183.153,87.7111 183.82,91.0445 184,94.5C 187.736,98.8066 190.57,103.64 192.5,109C 187.489,114.688 181.489,119.188 174.5,122.5C 171.844,119.199 169.678,115.532 168,111.5C 165.221,105.61 162.721,99.6097 160.5,93.5C 161.219,91.2723 162.552,89.439 164.5,88C 167.567,85.8118 170.567,83.6452 173.5,81.5 Z M 174.5,91.5 C 174.628,93.6547 174.128,95.6547 173,97.5C 172.51,96.2068 172.343,94.8734 172.5,93.5C 172.833,92.5 173.5,91.8333 174.5,91.5 Z M 178.5,104.5 C 179.376,104.369 180.043,104.702 180.5,105.5C 179.359,106.425 179.359,107.259 180.5,108C 179.975,108.692 179.308,109.192 178.5,109.5C 178.458,107.812 178.458,106.146 178.5,104.5 Z"/></g>
<g><path style="opacity:1" fill="#c9db9d" d="M 343.5,85.5 C 349.303,85.81 351.47,88.81 350,94.5C 348.081,97.3738 347.581,100.374 348.5,103.5C 351.061,101.393 352.894,98.7262 354,95.5C 355.667,94.1667 357.333,94.1667 359,95.5C 361,99.5 361,103.5 359,107.5C 358.333,109.5 357,110.833 355,111.5C 353.789,117.132 351.789,122.466 349,127.5C 348.275,128.059 347.442,128.392 346.5,128.5C 344.056,127.233 341.723,125.733 339.5,124C 342.813,119.929 344.146,115.429 343.5,110.5C 340.898,112.857 338.898,115.69 337.5,119C 333.805,119.497 331.139,117.997 329.5,114.5C 331.36,108.605 334.36,103.438 338.5,99C 339.484,94.2125 341.15,89.7125 343.5,85.5 Z"/></g>
<g><path style="opacity:0.769" fill="#4e5e45" d="M 174.5,91.5 C 175.613,92.9464 175.78,94.6131 175,96.5C 174.29,97.9733 173.124,98.6399 171.5,98.5C 171.216,96.5853 171.549,94.9187 172.5,93.5C 172.343,94.8734 172.51,96.2068 173,97.5C 174.128,95.6547 174.628,93.6547 174.5,91.5 Z"/></g>
<g><path style="opacity:1" fill="#cbdd9e" d="M 233.5,192.5 C 240.097,191.764 243.097,194.764 242.5,201.5C 235.623,202.246 232.623,199.246 233.5,192.5 Z"/></g>
<g><path style="opacity:1" fill="#c9db9e" d="M 282.5,193.5 C 293.216,193.156 303.882,193.656 314.5,195C 315.602,197.401 315.769,199.901 315,202.5C 314.592,204.41 313.425,205.41 311.5,205.5C 299.86,204.375 288.194,204.208 276.5,205C 263.656,208.171 250.823,211.338 238,214.5C 226.469,213.099 222.969,207.099 227.5,196.5C 229.131,199.596 231.131,202.43 233.5,205C 235.744,205.906 238.077,206.406 240.5,206.5C 254.761,202.685 268.761,198.352 282.5,193.5 Z"/></g>
<g><path style="opacity:0.949" fill="#aec488" d="M 246.5,193.5 C 247.496,193.414 248.329,193.748 249,194.5C 249.494,196.134 249.66,197.801 249.5,199.5C 248.5,199.5 247.5,199.5 246.5,199.5C 246.5,197.5 246.5,195.5 246.5,193.5 Z"/></g>
<g><path style="opacity:1" fill="#cadc9e" d="M 220.5,209.5 C 223.297,211.795 225.964,214.295 228.5,217C 231.374,218.899 234.541,219.733 238,219.5C 251.49,216.338 264.99,213.171 278.5,210C 292.64,208.915 306.64,209.748 320.5,212.5C 319.833,215.833 319.167,219.167 318.5,222.5C 303.714,218.343 288.714,217.509 273.5,220C 264.529,222.128 255.529,224.128 246.5,226C 231.877,229.504 223.211,224.004 220.5,209.5 Z"/></g>
<g><path style="opacity:1" fill="#cddfa1" d="M 231.5,231.5 C 238.908,234.096 246.241,233.762 253.5,230.5C 270.916,223.945 288.916,222.111 307.5,225C 312.153,226.16 316.487,227.993 320.5,230.5C 314.162,251.18 307.829,271.846 301.5,292.5C 295.178,290.675 288.845,288.842 282.5,287C 272.812,286.245 263.146,286.411 253.5,287.5C 243.799,289.509 234.132,291.675 224.5,294C 210.898,297.875 202.565,293.041 199.5,279.5C 199.667,278.5 199.833,277.5 200,276.5C 204.161,282.414 209.828,285.081 217,284.5C 230.862,282.261 244.695,279.761 258.5,277C 270.942,275.569 283.109,276.735 295,280.5C 295.945,280.095 296.612,279.428 297,278.5C 300.368,266.894 304.201,255.561 308.5,244.5C 309.777,243.306 310.444,241.64 310.5,239.5C 310.537,236.753 309.537,234.586 307.5,233C 297.167,232.333 286.833,232.333 276.5,233C 272.928,233.033 269.928,234.2 267.5,236.5C 257.675,239.398 247.675,241.398 237.5,242.5C 227.658,242.146 220.158,237.813 215,229.5C 214.122,225.432 214.955,221.766 217.5,218.5C 220.879,224.212 225.546,228.545 231.5,231.5 Z"/></g>
<g><path style="opacity:0.816" fill="#75895e" d="M 253.5,230.5 C 246.241,233.762 238.908,234.096 231.5,231.5C 238.845,232.312 246.178,231.979 253.5,230.5 Z"/></g>
<g><path style="opacity:1" fill="#93a777" d="M 308.5,244.5 C 308.963,241.518 309.296,238.518 309.5,235.5C 295.434,232.703 281.434,233.036 267.5,236.5C 269.928,234.2 272.928,233.033 276.5,233C 286.833,232.333 297.167,232.333 307.5,233C 309.537,234.586 310.537,236.753 310.5,239.5C 310.444,241.64 309.777,243.306 308.5,244.5 Z"/></g>
<g><path style="opacity:1" fill="#d2e2a5" d="M 210.5,273.5 C 217.586,275.935 224.586,275.602 231.5,272.5C 238.225,270.87 244.892,268.704 251.5,266C 255.388,261.972 255.388,258.139 251.5,254.5C 249.71,253.003 247.544,252.336 245,252.5C 243.293,252.508 241.793,252.842 240.5,253.5C 228.855,255.933 219.022,252.933 211,244.5C 210.333,241.5 210.333,238.5 211,235.5C 211.196,233.714 212.029,232.381 213.5,231.5C 220.171,239.419 228.671,243.752 239,244.5C 257.434,240.766 275.934,237.433 294.5,234.5C 295.167,234.833 295.833,235.167 296.5,235.5C 298.862,240.884 301.196,246.218 303.5,251.5C 302.591,257.727 300.591,263.56 297.5,269C 294.628,269.315 291.795,269.815 289,270.5C 287.075,272.085 284.909,273.252 282.5,274C 273.833,274.333 265.167,274.667 256.5,275C 242.846,277.897 229.179,280.731 215.5,283.5C 204.031,281.85 199.531,275.517 202,264.5C 203.688,268.685 206.521,271.685 210.5,273.5 Z"/></g>
<g><path style="opacity:0.561" fill="#3f4d3d" d="M 240.5,253.5 C 241.793,252.842 243.293,252.508 245,252.5C 247.544,252.336 249.71,253.003 251.5,254.5C 247.881,253.756 244.215,253.423 240.5,253.5 Z"/></g>
<g><path style="opacity:1" fill="#c7db99" d="M 122.5,269.5 C 127.69,268.842 130.023,271.175 129.5,276.5C 129.41,278.228 129.077,279.894 128.5,281.5C 127.349,282.731 126.183,282.731 125,281.5C 123.33,283.698 121.33,284.032 119,282.5C 117.496,278.961 117.163,275.295 118,271.5C 119.333,270.167 120.667,270.167 122,271.5C 122.464,270.906 122.631,270.239 122.5,269.5 Z"/></g>
<g><path style="opacity:1" fill="#c3d798" d="M 386.5,268.5 C 388.305,269.237 389.971,270.237 391.5,271.5C 392.736,270.754 394.07,270.421 395.5,270.5C 396.227,274.224 394.894,276.891 391.5,278.5C 392.325,279.386 393.325,279.719 394.5,279.5C 394.714,281.144 394.38,282.644 393.5,284C 389.83,284.638 386.33,284.138 383,282.5C 381.745,277.101 382.911,272.434 386.5,268.5 Z"/></g>
<g><path style="opacity:1" fill="#798a5e" d="M 231.5,272.5 C 224.586,275.602 217.586,275.935 210.5,273.5C 212.92,273.292 215.253,273.626 217.5,274.5C 222.11,273.507 226.777,272.84 231.5,272.5 Z"/></g>
<g><path style="opacity:1" fill="#bbd093" d="M 380.5,289.5 C 381.5,289.5 382.5,289.5 383.5,289.5C 383.5,290.5 383.5,291.5 383.5,292.5C 386.388,292.22 387.888,293.553 388,296.5C 388.112,293.553 389.612,292.22 392.5,292.5C 391.993,296.86 391.327,301.193 390.5,305.5C 386.433,304.886 382.6,303.552 379,301.5C 378.844,297.445 379.344,293.445 380.5,289.5 Z"/></g>
<g><path style="opacity:1" fill="#bfd195" d="M 119.5,291.5 C 123.182,291.335 126.848,291.501 130.5,292C 133.065,295.18 132.898,298.347 130,301.5C 127.815,303.54 125.315,304.874 122.5,305.5C 122.127,300.679 121.127,296.012 119.5,291.5 Z"/></g>
<g><path style="opacity:1" fill="#c7db9b" d="M 133.5,306.5 C 135.484,306.484 136.484,307.484 136.5,309.5C 136.152,311.697 135.152,313.53 133.5,315C 134.949,316.117 136.616,316.784 138.5,317C 139.337,318.011 139.67,319.178 139.5,320.5C 135.286,321.659 131.119,321.659 127,320.5C 126.333,318.5 126.333,316.5 127,314.5C 129.001,311.669 131.167,309.003 133.5,306.5 Z"/></g>
<g><path style="opacity:1" fill="#c1d598" d="M 376.5,307.5 C 377.5,307.5 378.5,307.5 379.5,307.5C 379.295,311.758 381.128,314.758 385,316.5C 385.494,318.134 385.66,319.801 385.5,321.5C 383.095,321.134 380.762,320.467 378.5,319.5C 376.944,320.547 375.277,321.214 373.5,321.5C 373.556,316.611 374.556,311.944 376.5,307.5 Z"/></g>
<g><path style="opacity:1" fill="#c6da9a" d="M 139.5,326.5 C 140.822,326.33 141.989,326.663 143,327.5C 144.759,331.009 145.926,334.675 146.5,338.5C 143.954,338.014 141.454,338.014 139,338.5C 138.798,340.256 138.298,341.922 137.5,343.5C 130.349,336.922 131.015,331.255 139.5,326.5 Z"/></g>
<g><path style="opacity:1" fill="#bccf92" d="M 368.5,328.5 C 372.876,328.114 377.043,328.781 381,330.5C 381.667,331.5 381.667,332.5 381,333.5C 378.404,336.15 376.904,339.316 376.5,343C 375.833,343.667 375.167,343.667 374.5,343C 371.543,339.884 369.21,336.384 367.5,332.5C 367.846,331.151 368.179,329.817 368.5,328.5 Z"/></g>
<g><path style="opacity:1" fill="#b4c88d" d="M 358.5,348.5 C 361.841,348.656 364.674,349.989 367,352.5C 367.875,349.785 369.708,348.452 372.5,348.5C 372.259,352.982 370.426,356.649 367,359.5C 364.344,357.514 361.677,355.514 359,353.5C 358.506,351.866 358.34,350.199 358.5,348.5 Z"/></g>
<g><path style="opacity:1" fill="#c1d496" d="M 152.5,352.5 C 153.822,352.33 154.989,352.663 156,353.5C 156.333,356.167 156.667,358.833 157,361.5C 158.356,360.62 159.856,360.286 161.5,360.5C 161.02,366.463 158.02,369.963 152.5,371C 151.88,368.527 151.214,366.027 150.5,363.5C 148.737,364.954 147.403,364.62 146.5,362.5C 148.129,358.887 150.129,355.554 152.5,352.5 Z"/></g>
<g><path style="opacity:1" fill="#c1d697" d="M 163.5,370.5 C 170.943,371.016 173.777,375.016 172,382.5C 168.521,387.757 164.854,387.757 161,382.5C 159.888,378.019 160.721,374.019 163.5,370.5 Z M 165.5,377.5 C 167.973,377.947 168.14,378.947 166,380.5C 165.517,379.552 165.351,378.552 165.5,377.5 Z"/></g>
<g><path style="opacity:1" fill="#bacd8e" d="M 346.5,366.5 C 349.523,366.105 350.523,367.105 349.5,369.5C 350.325,370.386 351.325,370.719 352.5,370.5C 352.105,373.523 353.105,374.523 355.5,373.5C 355.833,374 356.167,374.5 356.5,375C 354.728,378.602 352.395,381.768 349.5,384.5C 346.353,381.695 344.02,378.361 342.5,374.5C 343.418,371.594 344.751,368.928 346.5,366.5 Z"/></g>
<g><path style="opacity:0.086" fill="#1e2b26" d="M 165.5,375.5 C 166.5,375.5 167.5,375.5 168.5,375.5C 168.66,377.199 168.494,378.866 168,380.5C 165.833,382 164.333,381.5 163.5,379C 163.978,377.697 164.645,376.531 165.5,375.5 Z M 165.5,377.5 C 165.351,378.552 165.517,379.552 166,380.5C 168.14,378.947 167.973,377.947 165.5,377.5 Z"/></g>
<g><path style="opacity:1" fill="#bfd294" d="M 334.5,380.5 C 335.873,380.343 337.207,380.51 338.5,381C 340.071,384.247 342.071,387.247 344.5,390C 344.355,390.772 344.022,391.439 343.5,392C 341.559,392.743 339.726,392.576 338,391.5C 338.135,393.425 338.302,395.425 338.5,397.5C 336.856,397.714 335.356,397.38 334,396.5C 331.966,393.294 330.133,389.96 328.5,386.5C 330.215,384.118 332.215,382.118 334.5,380.5 Z"/></g>
<g><path style="opacity:1" fill="#c7da9a" d="M 176.5,382.5 C 179.766,382.433 181.266,384.099 181,387.5C 182.356,386.62 183.856,386.286 185.5,386.5C 185.5,387.833 185.5,389.167 185.5,390.5C 187.948,390.01 189.615,390.843 190.5,393C 188.907,396.262 186.907,399.262 184.5,402C 180.221,402.916 178.388,401.083 179,396.5C 175.889,398.272 174.056,397.439 173.5,394C 174.608,390.179 175.608,386.345 176.5,382.5 Z"/></g>
<g><path style="opacity:1" fill="#c4d999" d="M 319.5,392.5 C 325.449,391.67 328.449,394.337 328.5,400.5C 327.662,406.995 324.162,409.328 318,407.5C 314.369,401.984 314.869,396.984 319.5,392.5 Z M 323.5,399.5 C 323.5,400.5 323.5,401.5 323.5,402.5C 322.391,402.443 321.391,402.11 320.5,401.5C 320.402,398.752 321.402,398.086 323.5,399.5 Z"/></g>
<g><path style="opacity:0.006" fill="#1d231c" d="M 320.5,401.5 C 321.391,402.11 322.391,402.443 323.5,402.5C 322.053,403.885 321.053,403.552 320.5,401.5 Z"/></g>
<g><path style="opacity:0.043" fill="#314034" d="M 323.5,399.5 C 321.402,398.086 320.402,398.752 320.5,401.5C 319.566,400.432 319.232,399.099 319.5,397.5C 321.483,397.157 322.817,397.824 323.5,399.5 Z"/></g>
<g><path style="opacity:1" fill="#c3d796" d="M 189.5,404.5 C 190.833,404.5 192.167,404.5 193.5,404.5C 193.5,406.167 193.5,407.833 193.5,409.5C 192.167,409.5 190.833,409.5 189.5,409.5C 189.5,407.833 189.5,406.167 189.5,404.5 Z"/></g>
<g><path style="opacity:1" fill="#c5d99a" d="M 305.5,401.5 C 307.144,401.286 308.644,401.62 310,402.5C 311.949,406.629 313.116,410.963 313.5,415.5C 309.084,415.961 305.251,417.628 302,420.5C 301.228,420.355 300.561,420.022 300,419.5C 298.146,415.292 297.146,410.959 297,406.5C 299.939,403.491 302.272,403.824 304,407.5C 304.315,405.414 304.815,403.414 305.5,401.5 Z"/></g>
<g><path style="opacity:1" fill="#c5da9a" d="M 224.5,410.5 C 231.899,409.405 235.065,412.405 234,419.5C 230.725,420.886 227.891,422.886 225.5,425.5C 223.987,423.465 223.321,421.131 223.5,418.5C 223.703,415.803 224.036,413.136 224.5,410.5 Z"/></g>
<g><path style="opacity:1" fill="#cadf9e" d="M 210.5,405.5 C 213.695,404.961 216.195,405.961 218,408.5C 218.116,412.74 217.616,416.907 216.5,421C 213.15,421.93 210.317,421.097 208,418.5C 207.615,413.924 208.449,409.59 210.5,405.5 Z"/></g>
<g><path style="opacity:1" fill="#c7dc9b" d="M 239.5,414.5 C 242.833,414.5 246.167,414.5 249.5,414.5C 249.672,416.492 249.005,418.158 247.5,419.5C 248.246,420.736 248.579,422.07 248.5,423.5C 247.325,423.281 246.325,423.614 245.5,424.5C 247.482,425.216 249.149,426.383 250.5,428C 247.309,429.812 243.976,429.978 240.5,428.5C 239.507,423.88 239.173,419.214 239.5,414.5 Z"/></g>
<g><path style="opacity:1" fill="#cbdd9e" d="M 263.5,414.5 C 264.5,414.5 265.5,414.5 266.5,414.5C 267.164,419.473 267.497,424.473 267.5,429.5C 264.215,429.731 261.715,428.397 260,425.5C 259.51,426.793 259.343,428.127 259.5,429.5C 258.167,429.5 256.833,429.5 255.5,429.5C 255.5,424.833 255.5,420.167 255.5,415.5C 258.325,415.081 260.491,416.081 262,418.5C 263.188,417.437 263.688,416.103 263.5,414.5 Z"/></g>
<g><path style="opacity:1" fill="#c3d798" d="M 273.5,412.5 C 280.339,410.607 284.006,413.107 284.5,420C 283.977,426.82 280.477,429.32 274,427.5C 272.362,422.49 272.195,417.49 273.5,412.5 Z"/></g>
<g><path style="opacity:0.004" fill="#1e2720" d="M 277.5,417.5 C 280.084,418.048 281.084,419.715 280.5,422.5C 279.5,422.5 278.5,422.5 277.5,422.5C 277.5,420.833 277.5,419.167 277.5,417.5 Z"/></g>
</svg>
